<svg width="318" height="100" viewBox="0 0 318 100" fill="none" xmlns="http://www.w3.org/2000/svg">
<path d="M225.422 6.03801C225.422 2.70331 228.125 0 231.46 0H311.092C314.426 0 317.13 2.70331 317.13 6.03801V85.6698C317.13 89.0045 314.426 91.7078 311.092 91.7078H231.46C228.125 91.7078 225.422 89.0045 225.422 85.6698V6.03801Z" fill="#FFCC00"/>
<path fill-rule="evenodd" clip-rule="evenodd" d="M29.7517 77.6531C41.0471 77.6461 50.7937 71.3657 55.8088 62.0952L47.6968 57.7548C44.3217 64.1289 37.5661 68.2837 29.7464 68.289C18.3547 68.2951 9.37118 59.4183 9.36418 47.9304C9.35718 36.4424 18.3311 27.5547 29.7228 27.5481C37.5425 27.5436 44.3024 31.6909 47.6855 38.0607L55.7921 33.7116C50.7666 24.4466 41.013 18.177 29.7175 18.1836C13.3055 18.1931 -0.0096206 31.5236 5.21575e-06 47.9356C0.00963103 64.3476 13.3396 77.6628 29.7517 77.6531ZM29.7517 77.6531C41.0471 77.6461 50.7937 71.3657 55.8088 62.0952L47.6968 57.7548C44.3217 64.1289 37.5661 68.2837 29.7464 68.289C18.3547 68.2951 9.37118 59.4183 9.36418 47.9304C9.35718 36.4424 18.3311 27.5547 29.7228 27.5481C37.5425 27.5436 44.3024 31.6909 47.6855 38.0607L55.7921 33.7116C50.7666 24.4466 41.013 18.177 29.7175 18.1836C13.3055 18.1931 -0.0096206 31.5236 5.21575e-06 47.9356C0.00963103 64.3476 13.3396 77.6628 29.7517 77.6531ZM29.7517 77.6531C41.0471 77.6461 50.7937 71.3657 55.8088 62.0952L47.6968 57.7548C44.3217 64.1289 37.5661 68.2837 29.7464 68.289C18.3547 68.2951 9.37118 59.4183 9.36418 47.9304C9.35718 36.4424 18.3311 27.5547 29.7228 27.5481C37.5425 27.5436 44.3024 31.6909 47.6855 38.0607L55.7921 33.7116C50.7666 24.4466 41.013 18.177 29.7175 18.1836C13.3055 18.1931 -0.0096206 31.5236 5.21575e-06 47.9356C0.00963103 64.3476 13.3396 77.6628 29.7517 77.6531Z" fill="white"/>
<path fill-rule="evenodd" clip-rule="evenodd" d="M105.388 69.3051C103.554 69.3059 101.816 68.3416 101.813 64.963L101.798 38.2207L92.6268 38.226L92.6294 42.2808C89.3453 39.2899 85.0959 37.4581 80.1727 37.4609C69.2632 37.4672 60.5798 46.3544 60.5859 57.5526C60.5921 68.7509 69.2868 77.6286 80.1955 77.6225C82.8319 77.6315 85.4374 77.0553 87.8241 75.9353C90.2108 74.8153 92.3192 73.1796 93.9972 71.146C95.9302 75.006 99.6974 77.6111 104.428 77.6076C105.506 77.6157 106.569 77.3495 107.516 76.834L107.512 69.304L105.388 69.3051ZM81.3497 69.1257C74.8812 69.1301 69.7611 64.0161 69.7576 57.5476C69.7541 51.079 74.868 45.9598 81.3357 45.9563C82.857 45.9554 84.3636 46.2542 85.7695 46.8355C87.1754 47.4168 88.453 48.2694 89.5293 49.3445C90.6057 50.4195 91.4598 51.6961 92.0429 53.1013C92.6259 54.5064 92.9265 56.0127 92.9274 57.534C92.9283 59.0553 92.6296 60.5619 92.0482 61.9678C91.4669 63.3737 90.6143 64.6513 89.5393 65.7277C88.4642 66.804 87.1876 67.6581 85.7824 68.2412C84.3773 68.8242 82.871 69.1248 81.3497 69.1257V69.1257Z" fill="white"/>
<path fill-rule="evenodd" clip-rule="evenodd" d="M135.133 37.4219C130.209 37.4247 125.962 39.2615 122.681 42.2561L122.679 38.2014L113.508 38.2067L113.544 99.9936L122.715 99.9875L122.699 72.7631C125.983 75.7541 130.232 77.5856 135.155 77.583C146.065 77.5769 154.748 68.6896 154.742 57.4913C154.736 46.2929 146.041 37.4155 135.133 37.4219ZM133.992 69.0878C127.524 69.0921 122.405 63.9782 122.4 57.5097C122.396 51.0411 127.511 45.9219 133.979 45.9184C140.448 45.9149 145.567 51.028 145.571 57.4965C145.574 63.9651 140.461 69.0843 133.992 69.0878V69.0878Z" fill="white"/>
<path fill-rule="evenodd" clip-rule="evenodd" d="M204.802 69.2427C202.967 69.2435 201.229 68.2792 201.227 64.9005L201.212 38.1583L192.04 38.1636L192.043 42.2183C188.758 39.2274 184.509 37.3956 179.586 37.3984C168.676 37.4048 159.993 46.2918 160 57.4901C160.007 68.6885 168.7 77.5661 179.61 77.56C182.246 77.5688 184.851 76.9925 187.238 75.8725C189.625 74.7526 191.733 73.117 193.411 71.0836C195.344 74.9435 199.111 77.5486 203.841 77.546C204.92 77.5534 205.983 77.2869 206.93 76.7715L206.926 69.2415L204.802 69.2427ZM180.763 69.0633C174.294 69.0677 169.175 63.9537 169.171 57.4852C169.166 51.0166 174.281 45.8974 180.749 45.8939C182.27 45.893 183.777 46.1917 185.183 46.7731C186.589 47.3544 187.866 48.207 188.943 49.2821C190.019 50.3571 190.873 51.6337 191.456 53.0389C192.039 54.444 192.34 55.9503 192.341 57.4716C192.341 58.9929 192.043 60.4995 191.461 61.9054C190.88 63.3113 190.028 64.5889 188.952 65.6652C187.877 66.7416 186.601 67.5957 185.196 68.1788C183.79 68.7618 182.284 69.0624 180.763 69.0633Z" fill="white"/>
<path fill-rule="evenodd" clip-rule="evenodd" d="M234.549 37.3749C229.625 37.3778 225.379 39.2145 222.098 42.2092L222.078 17.0469L212.906 17.0521L212.947 76.776L222.117 76.7707L222.116 72.7156C225.4 75.7066 229.648 77.539 234.572 77.5355C245.481 77.5294 254.165 68.6421 254.158 57.4438C254.151 46.2455 245.458 37.3686 234.549 37.3749ZM233.408 69.0416C226.94 69.0451 221.821 63.9312 221.817 57.4626C221.814 50.9941 226.927 45.8749 233.395 45.8714C239.864 45.8679 244.983 50.9809 244.986 57.4495C244.99 63.918 239.877 69.0372 233.408 69.0416Z" fill="white"/>
<path fill-rule="evenodd" clip-rule="evenodd" d="M260.563 75.9505L269.734 75.9461L269.695 17.0469L260.523 17.0514L260.563 75.9505Z" fill="white"/>
<path fill-rule="evenodd" clip-rule="evenodd" d="M285.177 76.7074C288.557 76.7048 291.451 73.8075 291.449 70.4279C291.447 67.0484 288.549 64.1545 285.17 64.1563C281.791 64.158 278.897 67.0562 278.898 70.4358C278.9 73.8153 281.798 76.7092 285.177 76.7074Z" fill="#CF2323"/>
</svg>
