<svg width="318" height="100" viewBox="0 0 318 100" fill="none" xmlns="http://www.w3.org/2000/svg">
<path d="M225.406 6.03801C225.406 2.70331 228.11 0 231.444 0H311.076C314.411 0 317.114 2.70331 317.114 6.03801V85.6698C317.114 89.0045 314.411 91.7078 311.076 91.7078H231.444C228.11 91.7078 225.406 89.0045 225.406 85.6698V6.03801Z" fill="#FFCC00"/>
<path fill-rule="evenodd" clip-rule="evenodd" d="M29.7517 77.6531C41.0471 77.6461 50.7937 71.3657 55.8088 62.0952L47.6968 57.7548C44.3217 64.1289 37.5661 68.2837 29.7464 68.289C18.3547 68.2951 9.37118 59.4183 9.36418 47.9304C9.35718 36.4424 18.3311 27.5547 29.7228 27.5481C37.5425 27.5436 44.3024 31.6909 47.6855 38.0607L55.7921 33.7116C50.7666 24.4466 41.013 18.177 29.7175 18.1836C13.3055 18.1931 -0.0096206 31.5236 5.21575e-06 47.9356C0.00963103 64.3476 13.3396 77.6628 29.7517 77.6531ZM29.7517 77.6531C41.0471 77.6461 50.7937 71.3657 55.8088 62.0952L47.6968 57.7548C44.3217 64.1289 37.5661 68.2837 29.7464 68.289C18.3547 68.2951 9.37118 59.4183 9.36418 47.9304C9.35718 36.4424 18.3311 27.5547 29.7228 27.5481C37.5425 27.5436 44.3024 31.6909 47.6855 38.0607L55.7921 33.7116C50.7666 24.4466 41.013 18.177 29.7175 18.1836C13.3055 18.1931 -0.0096206 31.5236 5.21575e-06 47.9356C0.00963103 64.3476 13.3396 77.6628 29.7517 77.6531ZM29.7517 77.6531C41.0471 77.6461 50.7937 71.3657 55.8088 62.0952L47.6968 57.7548C44.3217 64.1289 37.5661 68.2837 29.7464 68.289C18.3547 68.2951 9.37118 59.4183 9.36418 47.9304C9.35718 36.4424 18.3311 27.5547 29.7228 27.5481C37.5425 27.5436 44.3024 31.6909 47.6855 38.0607L55.7921 33.7116C50.7666 24.4466 41.013 18.177 29.7175 18.1836C13.3055 18.1931 -0.0096206 31.5236 5.21575e-06 47.9356C0.00963103 64.3476 13.3396 77.6628 29.7517 77.6531Z" fill="#2A2A2A"/>
<path fill-rule="evenodd" clip-rule="evenodd" d="M105.404 69.3051C103.569 69.3059 101.832 68.3416 101.829 64.963L101.814 38.2207L92.6424 38.226L92.645 42.2808C89.3609 39.2899 85.1115 37.4581 80.1883 37.4609C69.2788 37.4672 60.5954 46.3544 60.6016 57.5526C60.6077 68.7509 69.3024 77.6286 80.2111 77.6225C82.8475 77.6315 85.453 77.0553 87.8398 75.9353C90.2265 74.8153 92.3349 73.1796 94.0128 71.146C95.9458 75.006 99.713 77.6111 104.444 77.6076C105.522 77.6157 106.585 77.3495 107.532 76.834L107.527 69.304L105.404 69.3051ZM81.3653 69.1257C74.8968 69.1301 69.7767 64.0161 69.7732 57.5476C69.7697 51.079 74.8836 45.9598 81.3513 45.9563C82.8726 45.9554 84.3793 46.2542 85.7851 46.8355C87.191 47.4168 88.4686 48.2694 89.545 49.3445C90.6214 50.4195 91.4754 51.6961 92.0585 53.1013C92.6415 54.5064 92.9421 56.0127 92.943 57.534C92.9439 59.0553 92.6452 60.5619 92.0638 61.9678C91.4825 63.3737 90.63 64.6513 89.5549 65.7277C88.4798 66.804 87.2032 67.6581 85.798 68.2412C84.3929 68.8242 82.8867 69.1248 81.3653 69.1257V69.1257Z" fill="#2A2A2A"/>
<path fill-rule="evenodd" clip-rule="evenodd" d="M135.148 37.4219C130.224 37.4247 125.977 39.2615 122.697 42.2561L122.695 38.2014L113.523 38.2067L113.559 99.9936L122.731 99.9875L122.714 72.7631C125.999 75.7541 130.248 77.5856 135.171 77.583C146.081 77.5769 154.764 68.6896 154.758 57.4913C154.752 46.2929 146.057 37.4155 135.148 37.4219ZM134.008 69.0878C127.539 69.0921 122.42 63.9782 122.416 57.5097C122.412 51.0411 127.526 45.9219 133.995 45.9184C140.463 45.9149 145.583 51.028 145.586 57.4965C145.59 63.9651 140.477 69.0843 134.008 69.0878V69.0878Z" fill="#2A2A2A"/>
<path fill-rule="evenodd" clip-rule="evenodd" d="M204.802 69.2427C202.967 69.2435 201.229 68.2792 201.227 64.9005L201.212 38.1583L192.04 38.1636L192.043 42.2183C188.758 39.2274 184.509 37.3956 179.586 37.3984C168.676 37.4048 159.993 46.2918 160 57.4901C160.007 68.6885 168.7 77.5661 179.61 77.56C182.246 77.5688 184.851 76.9925 187.238 75.8725C189.625 74.7526 191.733 73.117 193.411 71.0836C195.344 74.9435 199.111 77.5486 203.841 77.546C204.92 77.5534 205.983 77.2869 206.93 76.7715L206.926 69.2415L204.802 69.2427ZM180.763 69.0633C174.294 69.0677 169.175 63.9537 169.171 57.4852C169.166 51.0166 174.281 45.8974 180.749 45.8939C182.27 45.893 183.777 46.1917 185.183 46.7731C186.589 47.3544 187.866 48.207 188.943 49.2821C190.019 50.3571 190.873 51.6337 191.456 53.0389C192.039 54.444 192.34 55.9503 192.341 57.4716C192.341 58.9929 192.043 60.4995 191.461 61.9054C190.88 63.3113 190.028 64.5889 188.952 65.6652C187.877 66.7416 186.601 67.5957 185.196 68.1788C183.79 68.7618 182.284 69.0624 180.763 69.0633Z" fill="#2A2A2A"/>
<path fill-rule="evenodd" clip-rule="evenodd" d="M234.541 37.3749C229.618 37.3778 225.371 39.2145 222.09 42.2092L222.07 17.0469L212.898 17.0521L212.939 76.776L222.109 76.7707L222.108 72.7156C225.392 75.7066 229.64 77.539 234.564 77.5355C245.473 77.5294 254.157 68.6421 254.15 57.4438C254.143 46.2455 245.45 37.3686 234.541 37.3749ZM233.401 69.0416C226.932 69.0451 221.813 63.9312 221.809 57.4626C221.806 50.9941 226.919 45.8749 233.387 45.8714C239.856 45.8679 244.975 50.9809 244.979 57.4495C244.982 63.918 239.869 69.0372 233.401 69.0416Z" fill="#2A2A2A"/>
<path fill-rule="evenodd" clip-rule="evenodd" d="M260.578 75.9505L269.75 75.9461L269.711 17.0469L260.539 17.0514L260.578 75.9505Z" fill="#2A2A2A"/>
<path fill-rule="evenodd" clip-rule="evenodd" d="M285.177 76.7074C288.557 76.7048 291.451 73.8075 291.449 70.4279C291.447 67.0484 288.549 64.1545 285.17 64.1563C281.791 64.158 278.897 67.0562 278.898 70.4358C278.9 73.8153 281.798 76.7092 285.177 76.7074Z" fill="#CF2323"/>
</svg>
